<?xml version="1.0" standalone="no"?><!DOCTYPE svg PUBLIC "-//W3C//DTD SVG 1.1//EN" "http://www.w3.org/Graphics/SVG/1.1/DTD/svg11.dtd"><svg t="1528784355099" class="icon" style="" viewBox="0 0 1024 1024" version="1.1" xmlns="http://www.w3.org/2000/svg" p-id="1135" xmlns:xlink="http://www.w3.org/1999/xlink" width="200" height="200"><defs><style type="text/css"></style></defs><path d="M511.442 81.515c-246.459 0-446.254 173.733-446.254 388.045 0 125.465 68.485 237.011 174.711 307.944l-0.087 163.805 145.865-99.332c39.889 10.17 82.094 15.632 125.766 15.632 246.46 0 446.254-173.735 446.254-388.049 0-214.313-199.794-388.045-446.255-388.045z m0 737.287c-48.528 0-95.072-7.278-138.235-20.619l-34.945 29.12c0.673 0.247 1.351 0.486 2.026 0.73l-61.04 43.332-0.634-78.271v-36.897c-105.556-63.11-174.621-167.959-174.621-286.638 0-192.881 182.423-349.243 407.45-349.243s407.45 156.362 407.45 349.243c-0.001 192.884-182.424 349.243-407.451 349.243z" p-id="1136" fill="#9f9f9f"></path></svg>