<?xml version="1.0" standalone="no"?><!DOCTYPE svg PUBLIC "-//W3C//DTD SVG 1.1//EN" "http://www.w3.org/Graphics/SVG/1.1/DTD/svg11.dtd"><svg t="1528786157017" class="icon" style="" viewBox="0 0 1024 1024" version="1.1" xmlns="http://www.w3.org/2000/svg" p-id="6112" xmlns:xlink="http://www.w3.org/1999/xlink" width="200" height="200"><defs><style type="text/css"></style></defs><path d="M874.649484 650.637524h127.994116c11.781324 0 21.331841 9.550517 21.331841 21.331841v21.331841c0 11.781324-9.550517 21.331841-21.331841 21.331841H874.649484c-11.781324 0-21.331841-9.550517-21.331841-21.331841v-21.331841c-0.001023-11.780301 9.550517-21.331841 21.331841-21.331841z m-85.329411-149.325957h213.323527c11.781324 0 21.331841 9.550517 21.331841 21.331841v21.331841c0 11.781324-9.550517 21.331841-21.331841 21.331841H789.320073c-11.781324 0-21.331841-9.550517-21.331841-21.331841v-21.331841c-0.001023-11.781324 9.550517-21.331841 21.331841-21.331841z m-85.329411-149.325957h298.651914c11.781324 0 21.331841 9.550517 21.331841 21.331841v21.331841c0 11.781324-9.550517 21.331841-21.331841 21.331841h-298.651914c-11.781324 0-21.331841-9.550517-21.331841-21.331841v-21.331841c-0.001023-11.781324 9.550517-21.331841 21.331841-21.331841z m-469.310735-63.995523c0.306992-191.988616 170.791851-191.933357 191.990662-191.990663 21.199835-0.054235 191.720509 0.002047 191.990663 191.990663 0 0-0.271176 117.359918 0 127.994116-0.271176 106.701161-85.016279 128.621403-85.329411 170.658821 0.512676 106.510826 218.483037 134.493134 277.320073 191.990662 50.889017 48.563042 42.664705 149.325957 42.664705 149.325957H0.024559s0-106.315374 42.664706-149.325957c65.783239-70.418816 277.859355-84.110653 277.320073-191.990662 0.281409-41.758056-85.022419-63.802118-85.329411-170.658821 0.306992-5.448082 0.363274-127.992069 0-127.994116z" p-id="6113" fill="#9f9f9f"></path></svg>