<?xml version="1.0" standalone="no"?><!DOCTYPE svg PUBLIC "-//W3C//DTD SVG 1.1//EN" "http://www.w3.org/Graphics/SVG/1.1/DTD/svg11.dtd"><svg t="1528794333678" class="icon" style="" viewBox="0 0 1024 1024" version="1.1" xmlns="http://www.w3.org/2000/svg" p-id="1051" xmlns:xlink="http://www.w3.org/1999/xlink" width="200" height="200"><defs><style type="text/css"></style></defs><path d="M958.882306 936.255611l-282.925504-282.92588c57.169564-62.584844 92.043198-145.883669 92.043198-237.328931 0-194.404063-157.59589-352.000329-351.999953-352.00033-194.404439 0-352.000329 157.596266-352.000329 352.00033s157.59589 352.000329 352.000329 352.000329c91.446015 0 174.74484-34.87401 237.329684-92.04395l282.925504 282.92588c6.248023 6.2484 16.378295 6.2484 22.627071 0 6.2484-6.248023 6.2484-16.379424 0-22.627448zM96.000706 416.0008c0-176.730932 143.268786-320.000094 319.999717-320.000094 176.731308 0 320.00047 143.268786 320.000471 320.000094s-143.268786 320.000094-320.000471 320.000094c-176.730932 0-319.999718-143.268786-319.999717-320.000094z" fill="#656565" p-id="1052"></path></svg>